<svg width="297" height="61" viewBox="0 0 297 61" fill="none" xmlns="http://www.w3.org/2000/svg">
<path d="M65.3286 0H0V54.4403C0 56.18 0.688281 57.8485 1.91343 59.0787C3.13858 60.3089 4.80024 61 6.53286 61H71.8614V6.55973C71.8614 4.81998 71.1731 3.15149 69.948 1.9213C68.7228 0.691112 67.0612 0 65.3286 0V0ZM47.6517 46.3609L35.2557 37.8715C34.3264 37.2308 33.5765 36.3612 33.078 35.346L30.4159 29.9069L27.9389 41.206C27.6199 42.6669 26.8133 43.9744 25.6529 44.9119C24.4925 45.8495 23.0478 46.3607 21.5584 46.3609H17.2467L24.2097 14.6555L37.1338 23.0192C38.1296 23.6609 38.933 24.5622 39.4585 25.6267L41.6361 30.0654L43.9117 19.794C44.2337 18.3371 45.0408 17.034 46.1998 16.0998C47.3588 15.1656 48.8004 14.6561 50.2867 14.6555H54.6147L47.6517 46.3609Z" fill="#3E74FF"/>
<path d="M118.632 42.5344H112.143L97.0815 21.8466V42.5344H90.356V10.8132H97.271L111.906 30.74V10.8132H118.632V42.5344Z" fill="#3E74FF"/>
<path d="M139.828 43.1051C135.06 43.1051 131.113 41.5674 127.987 38.492C124.892 35.3848 123.345 31.4534 123.345 26.6976C123.345 21.9418 124.892 18.0261 127.987 14.9507C131.113 11.8436 135.06 10.29 139.828 10.29C144.627 10.29 148.574 11.8277 151.668 14.9032C154.794 17.9786 156.357 21.9101 156.357 26.6976C156.357 31.4851 154.794 35.4165 151.668 38.492C148.574 41.5674 144.627 43.1051 139.828 43.1051ZM132.865 34.1642C134.633 36.1299 136.954 37.1128 139.828 37.1128C142.701 37.1128 145.022 36.1299 146.79 34.1642C148.558 32.1984 149.442 29.7096 149.442 26.6976C149.442 23.6856 148.558 21.1967 146.79 19.2309C145.022 17.2652 142.701 16.2823 139.828 16.2823C136.954 16.2823 134.633 17.2652 132.865 19.2309C131.129 21.1967 130.26 23.6856 130.26 26.6976C130.26 29.7096 131.129 32.1984 132.865 34.1642Z" fill="#3E74FF"/>
<path d="M177.44 42.5344H169.009L156.789 10.8132H164.462L173.224 35.2104L181.939 10.8132H189.612L177.44 42.5344Z" fill="#3E74FF"/>
<path d="M219.769 42.5344H212.096L210.154 37.1603H196.608L194.619 42.5344H186.946L199.166 10.8132H207.597L219.769 42.5344ZM208.307 31.2156L203.381 17.5664L198.455 31.2156H208.307Z" fill="#3E74FF"/>
<path d="M241.53 42.5344H234.805V10.8132H249.582C252.897 10.8132 255.486 11.796 257.349 13.7618C259.244 15.6958 260.191 18.1213 260.191 21.0382C260.191 23.9233 259.244 26.3488 257.349 28.3145C255.455 30.2803 252.866 31.2631 249.582 31.2631H241.53V42.5344ZM248.682 25.3184C250.04 25.3184 251.145 24.9379 251.997 24.177C252.881 23.3844 253.324 22.3381 253.324 21.0382C253.324 19.7382 252.881 18.7078 251.997 17.9469C251.145 17.1542 250.04 16.7579 248.682 16.7579H241.53V25.3184H248.682Z" fill="#3E74FF"/>
<path d="M279.659 43.1051C274.859 43.1051 270.849 41.5832 267.628 38.5395C264.439 35.4641 262.845 31.5168 262.845 26.6976C262.845 21.8783 264.439 17.9469 267.628 14.9032C270.849 11.8277 274.859 10.29 279.659 10.29C285.563 10.29 289.968 12.874 292.873 18.042L287.095 20.8955C286.4 19.5639 285.374 18.47 284.016 17.614C282.69 16.7262 281.237 16.2823 279.659 16.2823C276.785 16.2823 274.417 17.2652 272.554 19.2309C270.691 21.1967 269.76 23.6856 269.76 26.6976C269.76 29.7096 270.691 32.1984 272.554 34.1642C274.417 36.1299 276.785 37.1128 279.659 37.1128C281.237 37.1128 282.69 36.6847 284.016 35.8287C285.374 34.9727 286.4 33.863 287.095 32.4996L292.873 35.3056C289.873 40.5052 285.468 43.1051 279.659 43.1051Z" fill="#3E74FF"/>
</svg>
