<svg width="768" height="455" viewBox="0 0 768 455" fill="none" xmlns="http://www.w3.org/2000/svg">
<circle cx="540.5" cy="227.5" r="227.5" fill="#3E74FF"/>
<path d="M453.775 227.5C453.775 352.316 352.592 453.5 227.775 453.5C102.959 453.5 1.77539 352.316 1.77539 227.5C1.77539 102.684 102.959 1.5 227.775 1.5C352.592 1.5 453.775 102.684 453.775 227.5Z" stroke="white" stroke-width="3"/>
<path d="M411.836 236.152C412.025 233.433 413.077 231.214 414.993 229.495C416.926 227.796 419.308 227.045 422.139 227.242C424.969 227.438 427.215 228.511 428.876 230.461C430.554 232.43 431.298 234.774 431.109 237.493C430.902 240.472 429.509 242.742 426.93 244.303L425.977 242.272C426.815 241.788 427.518 241.107 428.084 240.229C428.65 239.352 428.969 238.392 429.042 237.349C429.184 235.3 428.587 233.537 427.249 232.06C425.928 230.602 424.169 229.797 421.972 229.644C419.774 229.491 417.911 230.044 416.383 231.304C414.872 232.584 414.045 234.248 413.903 236.296C413.83 237.339 414.004 238.333 414.425 239.279C414.864 240.227 415.475 240.999 416.257 241.596L415.029 243.503C412.697 241.526 411.632 239.076 411.836 236.152Z" fill="white"/>
<path d="M408.821 262.725L410.575 254.395L428.85 258.244L427.137 266.382C426.806 267.952 426.115 269.104 425.064 269.837C424.009 270.587 422.788 270.817 421.4 270.524C420.304 270.293 419.438 269.787 418.801 269.004C418.183 268.225 417.877 267.369 417.883 266.436C417.533 267.373 416.846 268.096 415.823 268.606C414.796 269.134 413.735 269.282 412.639 269.051C411.16 268.74 410.063 268.013 409.35 266.871C408.651 265.751 408.475 264.369 408.821 262.725ZM419.299 264.33C419.087 265.335 419.198 266.169 419.63 266.832C420.063 267.496 420.709 267.918 421.567 268.099C422.426 268.279 423.188 268.144 423.856 267.694C424.537 267.265 424.982 266.557 425.19 265.571L426.344 260.091L420.453 258.851L419.299 264.33ZM410.947 262.686C410.724 263.745 410.832 264.636 411.271 265.358C411.71 266.08 412.414 266.543 413.382 266.747C414.277 266.935 415.089 266.792 415.819 266.316C416.545 265.858 417.021 265.091 417.248 264.013L418.426 258.424L412.124 257.096L410.947 262.686Z" fill="white"/>
<path d="M404.827 279.542L405.724 276.978L411.249 284.25C411.804 283 412.689 282.083 413.902 281.499C415.108 280.932 416.469 280.914 417.985 281.444C419.588 282.005 420.696 282.965 421.307 284.326C421.913 285.705 421.929 287.213 421.356 288.852L418.879 295.935L401.25 289.77L402.017 287.577L409.021 290.026L410.26 286.484L404.827 279.542ZM412.577 286.049L410.951 290.701L417.69 293.058L419.317 288.406C419.681 287.366 419.659 286.41 419.253 285.536C418.864 284.668 418.177 284.062 417.19 283.717C416.203 283.372 415.279 283.414 414.416 283.844C413.548 284.292 412.935 285.027 412.577 286.049Z" fill="white"/>
<path d="M394.329 305.523C395.03 304.12 395.919 302.989 396.996 302.129C398.072 301.269 399.149 300.763 400.226 300.613L400.94 302.503C400.022 302.671 399.129 303.101 398.261 303.794C397.401 304.512 396.717 305.38 396.208 306.399C395.557 307.701 395.319 308.866 395.495 309.893C395.687 310.928 396.268 311.687 397.236 312.171C398.238 312.672 399.177 312.651 400.053 312.108C400.922 311.582 401.689 310.651 402.357 309.315L404.059 305.909L405.912 306.835L404.21 310.241C403.618 311.427 403.359 312.508 403.435 313.485C403.518 314.486 404.02 315.217 404.938 315.676C405.84 316.126 406.733 316.093 407.618 315.575C408.494 315.074 409.22 314.247 409.796 313.095C410.739 311.208 410.851 309.292 410.133 307.347L412.011 306.846C412.445 307.898 412.637 309.058 412.588 310.327C412.546 311.621 412.208 312.902 411.574 314.171C410.723 315.875 409.613 317.094 408.244 317.829C406.867 318.58 405.494 318.614 404.125 317.93C403.023 317.379 402.325 316.561 402.033 315.476C401.749 314.416 401.753 313.385 402.045 312.383C401.502 313.26 400.668 313.928 399.541 314.387C398.405 314.863 397.228 314.797 396.009 314.188C394.607 313.487 393.742 312.335 393.417 310.732C393.091 309.13 393.395 307.393 394.329 305.523Z" fill="white"/>
<path d="M377.736 334.397L379.229 332.196L383.586 333.154L388.804 325.461L386.302 321.768L387.795 319.566L399.039 336.26L397.42 338.647L377.736 334.397ZM385.694 333.738L396.229 336.113L390.142 327.18L385.694 333.738Z" fill="white"/>
<path d="M367.533 347.308L369.071 345.566L381.515 356.56L385.426 352.132L386.979 353.504L377.599 364.122L376.046 362.75L379.976 358.302L367.533 347.308Z" fill="white"/>
<path d="M369.119 373.152L367.377 374.691L362.465 369.13L358.583 372.56C357.24 373.746 355.818 374.28 354.318 374.161C352.804 374.054 351.521 373.406 350.471 372.217C349.42 371.028 348.928 369.681 348.995 368.178C349.061 366.674 349.773 365.323 351.13 364.124L356.754 359.156L369.119 373.152ZM357.421 370.822L361.093 367.577L356.384 362.247L352.712 365.492C351.886 366.221 351.431 367.059 351.346 368.006C351.274 368.967 351.583 369.839 352.275 370.622C352.968 371.406 353.789 371.814 354.739 371.846C355.701 371.892 356.595 371.551 357.421 370.822Z" fill="white"/>
<path d="M332.116 378.798C334.377 377.276 336.775 376.743 339.308 377.198C341.837 377.679 343.893 379.096 345.477 381.45C347.061 383.804 347.595 386.235 347.078 388.743C346.555 391.277 345.164 393.305 342.902 394.826C340.425 396.494 337.778 396.79 334.962 395.715L335.978 393.715C336.876 394.078 337.844 394.214 338.884 394.121C339.925 394.029 340.878 393.691 341.746 393.107C343.449 391.961 344.473 390.406 344.816 388.442C345.155 386.505 344.709 384.622 343.48 382.795C342.25 380.967 340.668 379.838 338.736 379.406C336.797 379 334.977 379.37 333.273 380.517C332.406 381.1 331.728 381.849 331.24 382.762C330.763 383.691 330.529 384.647 330.538 385.631L328.279 385.835C328.406 382.779 329.685 380.434 332.116 378.798Z" fill="white"/>
<path d="M315.403 389.691L317.841 388.495L316.67 397.552C317.942 397.052 319.216 397.02 320.49 397.456C321.747 397.9 322.729 398.842 323.436 400.284C324.184 401.809 324.298 403.27 323.778 404.669C323.241 406.076 322.193 407.161 320.635 407.926L313.898 411.23L305.674 394.462L307.76 393.439L311.028 400.101L314.396 398.449L315.403 389.691ZM316.352 399.766L311.928 401.936L315.072 408.346L319.496 406.176C320.485 405.691 321.142 404.995 321.466 404.088C321.798 403.197 321.734 402.282 321.274 401.344C320.814 400.405 320.125 399.787 319.209 399.487C318.277 399.196 317.324 399.289 316.352 399.766Z" fill="white"/>
<path d="M276.524 404.977C279.16 404.284 281.599 404.569 283.842 405.832C286.072 407.119 287.547 409.134 288.269 411.878C288.99 414.622 288.694 417.093 287.38 419.291C286.053 421.512 284.072 422.969 281.436 423.662C278.547 424.421 275.95 423.83 273.645 421.888L275.263 420.334C275.991 420.973 276.861 421.419 277.874 421.674C278.886 421.929 279.898 421.924 280.909 421.658C282.895 421.136 284.373 420.004 285.344 418.263C286.301 416.545 286.5 414.62 285.94 412.49C285.38 410.36 284.258 408.773 282.575 407.729C280.878 406.708 279.037 406.459 277.051 406.981C276.04 407.246 275.154 407.73 274.393 408.432C273.636 409.152 273.101 409.978 272.786 410.91L270.586 410.359C271.71 407.516 273.69 405.722 276.524 404.977Z" fill="white"/>
<path d="M232.899 412.062L235.22 411.936L235.683 420.492L246.587 419.902L246.124 411.346L248.445 411.221L249.453 429.87L247.132 429.995L246.698 421.971L235.794 422.561L236.228 430.585L233.908 430.71L232.899 412.062Z" fill="white"/>
<path d="M203.505 410.829L206.153 411.075L207.415 415.354L216.671 416.213L218.699 412.239L221.348 412.485L212.15 430.387L209.278 430.121L203.505 410.829ZM207.921 417.481L210.923 427.855L215.811 418.214L207.921 417.481Z" fill="white"/>
<path d="M176.391 405.415L178.645 405.98L174.907 420.89L184.81 407.526L185.734 407.757L188.134 424.207L191.872 409.296L194.126 409.861L189.584 427.977L186.352 427.166L184.149 412.123L175.081 424.34L171.849 423.53L176.391 405.415Z" fill="white"/>
<path d="M162.108 401.01L164.168 401.89L156.828 419.063L154.691 418.15L160.424 404.736L144.804 413.925L142.616 412.989L149.955 395.816L152.092 396.729L146.238 410.427L162.108 401.01Z" fill="white"/>
<path d="M123.078 380.484C125.317 382.039 126.684 384.079 127.18 386.605C127.649 389.136 127.075 391.566 125.457 393.897C123.838 396.227 121.767 397.607 119.242 398.035C116.691 398.469 114.297 397.908 112.058 396.354C109.605 394.65 108.368 392.291 108.348 389.277L110.581 389.498C110.567 390.466 110.793 391.418 111.256 392.354C111.72 393.289 112.382 394.055 113.24 394.652C114.927 395.823 116.747 396.212 118.702 395.819C120.63 395.431 122.222 394.333 123.479 392.523C124.735 390.714 125.214 388.831 124.914 386.873C124.589 384.92 123.583 383.357 121.896 382.186C121.038 381.59 120.094 381.23 119.066 381.107C118.027 381 117.051 381.129 116.138 381.495L115.128 379.464C118.021 378.473 120.671 378.813 123.078 380.484Z" fill="white"/>
<path d="M101.983 364.461L108.259 370.211L95.641 383.98L89.51 378.362C88.3264 377.277 87.687 376.096 87.5916 374.819C87.4825 373.529 87.9071 372.361 88.8656 371.315C89.6223 370.489 90.4994 370.002 91.497 369.853C92.482 369.717 93.3747 369.89 94.1752 370.37C93.5467 369.591 93.2736 368.632 93.356 367.493C93.4246 366.34 93.8373 365.351 94.594 364.525C95.6155 363.411 96.7994 362.837 98.1456 362.805C99.4654 362.774 100.745 363.325 101.983 364.461ZM95.266 372.661C94.5091 371.967 93.735 371.638 92.9438 371.672C92.1526 371.707 91.4607 372.047 90.8679 372.694C90.2752 373.341 90.003 374.066 90.0512 374.87C90.0732 375.675 90.4557 376.418 91.1988 377.099L95.3275 380.883L99.3947 376.444L95.266 372.661ZM100.934 366.31C100.136 365.578 99.3144 365.218 98.4693 365.228C97.6242 365.239 96.8674 365.609 96.199 366.338C95.5811 367.012 95.2911 367.785 95.3291 368.655C95.3533 369.513 95.7714 370.314 96.5833 371.058L100.795 374.917L105.145 370.169L100.934 366.31Z" fill="white"/>
<path d="M89.3301 352.224L91.0759 354.304L82.0021 355.339C82.7922 356.455 83.1286 357.683 83.0113 359.025C82.882 360.352 82.2025 361.531 80.9728 362.563C79.6715 363.655 78.2797 364.116 76.7973 363.947C75.3029 363.763 73.9978 363.006 72.8818 361.676L68.0582 355.928L82.3646 343.923L83.8585 345.703L78.1746 350.473L80.5864 353.347L89.3301 352.224ZM79.7765 355.562L76.6088 351.787L71.1393 356.376L74.3071 360.151C75.015 360.995 75.8484 361.465 76.8071 361.563C77.7515 361.672 78.6241 361.39 79.4249 360.718C80.2256 360.046 80.6614 359.23 80.7322 358.269C80.791 357.293 80.4725 356.391 79.7765 355.562Z" fill="white"/>
<path d="M72.4363 330.096C73.2878 331.413 73.8101 332.754 74.0032 334.118C74.1964 335.483 74.084 336.667 73.6661 337.67L71.675 337.324C71.9979 336.448 72.0816 335.461 71.9262 334.361C71.7449 333.255 71.3451 332.225 70.7268 331.268C69.9362 330.046 69.0542 329.249 68.0808 328.878C67.0918 328.517 66.1427 328.631 65.2335 329.219C64.293 329.827 63.8336 330.646 63.8555 331.677C63.8671 332.692 64.2784 333.827 65.0893 335.081L67.157 338.278L65.4171 339.403L63.3493 336.206C62.6297 335.093 61.8302 334.32 60.9508 333.889C60.0457 333.451 59.1621 333.512 58.2999 334.069C57.4535 334.616 57.0282 335.403 57.0242 336.428C57.0101 337.437 57.3527 338.483 58.0521 339.564C59.1975 341.336 60.7901 342.406 62.8301 342.777L62.3069 344.649C61.1804 344.488 60.0835 344.064 59.0161 343.376C57.923 342.682 56.9913 341.74 56.2209 340.548C55.1871 338.949 54.7017 337.374 54.7649 335.821C54.8179 334.253 55.4871 333.054 56.7725 332.222C57.807 331.554 58.8659 331.369 59.949 331.669C61.0063 331.963 61.8921 332.491 62.6063 333.252C62.1272 332.339 61.9763 331.281 62.1537 330.077C62.3209 328.857 62.9767 327.877 64.121 327.137C65.4377 326.286 66.8689 326.127 68.4148 326.662C69.9606 327.196 71.3011 328.341 72.4363 330.096Z" fill="white"/>
<path d="M56.1608 301.505L57.3055 303.907L54.2756 307.181L58.2759 315.572L62.7274 315.28L63.8721 317.681L43.7846 318.944L42.5435 316.341L56.1608 301.505ZM52.7065 308.705L45.3317 316.594L56.1163 315.857L52.7065 308.705Z" fill="white"/>
<path d="M50.1956 286.13L50.913 288.34L35.1199 293.466L36.9437 299.085L34.9729 299.725L30.5993 286.249L32.5701 285.609L34.4025 291.255L50.1956 286.13Z" fill="white"/>
<path d="M27.1011 274.249L26.6657 271.967L33.9543 270.576L32.9838 265.488C32.648 263.728 32.914 262.233 33.7816 261.003C34.6457 259.755 35.8571 258.983 37.4157 258.685C38.9742 258.388 40.3832 258.651 41.6425 259.475C42.9019 260.299 43.7012 261.601 44.0404 263.379L45.4464 270.75L27.1011 274.249ZM35.0715 265.375L35.9896 270.188L42.9756 268.856L42.0576 264.042C41.8512 262.961 41.3625 262.142 40.5913 261.586C39.8018 261.033 38.8936 260.855 37.8668 261.051C36.84 261.246 36.0704 261.745 35.558 262.546C35.0274 263.35 34.8652 264.293 35.0715 265.375Z" fill="white"/>
<path d="M41.1445 240.019C41.3021 242.74 40.5399 245.075 38.8578 247.023C37.156 248.954 34.8888 250.002 32.0562 250.166C29.2236 250.33 26.8599 249.551 24.9651 247.828C23.0506 246.088 22.0145 243.858 21.8568 241.137C21.6841 238.155 22.7774 235.727 25.1369 233.851L26.3404 235.745C25.5704 236.332 24.9603 237.096 24.51 238.038C24.0598 238.981 23.8649 239.974 23.9254 241.017C24.0441 243.067 24.8609 244.74 26.3758 246.036C27.8709 247.314 29.7179 247.89 31.9169 247.762C34.1159 247.635 35.8934 246.849 37.2495 245.406C38.5859 243.945 39.1947 242.189 39.076 240.139C39.0155 239.096 38.7165 238.131 38.1791 237.246C37.623 236.362 36.9194 235.674 36.0681 235.181L37.0433 233.133C39.6079 234.798 40.975 237.094 41.1445 240.019Z" fill="white"/>
<path d="M40.2625 218.72L40.0324 221.426L32.8709 215.759C32.6438 217.107 32.0156 218.215 30.9864 219.083C29.9587 219.933 28.6451 220.289 27.0455 220.153C25.353 220.009 24.0411 219.354 23.1099 218.189C22.1802 217.004 21.789 215.547 21.9361 213.817L22.572 206.34L41.1809 207.923L40.9839 210.239L33.5906 209.61L33.2726 213.349L40.2625 218.72ZM31.1363 214.347L31.554 209.437L24.4396 208.832L24.022 213.742C23.9287 214.839 24.1875 215.761 24.7986 216.506C25.391 217.249 26.208 217.665 27.2496 217.754C28.2912 217.843 29.176 217.571 29.9041 216.94C30.6338 216.29 31.0446 215.426 31.1363 214.347Z" fill="white"/>
<path d="M47.0003 177.672C46.2476 180.292 44.755 182.242 42.5223 183.523C40.2769 184.781 37.7907 185.019 35.0637 184.235C32.3367 183.451 30.3646 181.933 29.1475 179.68C27.9176 177.404 27.679 174.956 28.4316 172.337C29.2564 169.466 31.0926 167.537 33.9402 166.549L34.4485 168.734C33.5275 169.033 32.6985 169.552 31.9616 170.292C31.2246 171.032 30.7117 171.904 30.423 172.909C29.856 174.882 30.0724 176.732 31.0724 178.456C32.0596 180.158 33.6117 181.312 35.7287 181.921C37.8457 182.529 39.7831 182.377 41.5408 181.464C43.2858 180.528 44.4418 179.074 45.0089 177.1C45.2975 176.095 45.335 175.086 45.1211 174.073C44.8893 173.055 44.4534 172.172 43.8135 171.425L45.4121 169.816C47.2802 172.237 47.8096 174.856 47.0003 177.672Z" fill="white"/>
<path d="M63.0153 136.919L61.9305 138.974L54.3531 134.975L49.2561 144.632L56.8336 148.631L55.7488 150.687L39.232 141.97L40.3168 139.914L47.4237 143.665L52.5207 134.008L45.4137 130.257L46.4985 128.202L63.0153 136.919Z" fill="white"/>
<path d="M78.4213 113.177L76.8565 115.328L72.5336 114.226L67.0652 121.743L69.4446 125.517L67.8798 127.668L57.1912 110.614L58.8877 108.281L78.4213 113.177ZM70.4462 113.573L59.9949 110.853L65.7849 119.981L70.4462 113.573Z" fill="white"/>
<path d="M97.2436 92.0829L95.6062 93.7322L84.6972 82.9021L91.1282 98.2429L90.4575 98.9185L75.0902 92.5792L85.9992 103.409L84.3619 105.059L71.1081 91.9007L73.4556 89.5361L87.5142 95.3257L81.6423 81.2897L83.9898 78.9251L97.2436 92.0829Z" fill="white"/>
<path d="M107.851 82.317L106.049 83.6478L94.9532 68.6256L96.8226 67.2448L105.49 78.9788L105.471 60.8566L107.385 59.4425L118.482 74.4648L116.612 75.8456L107.762 63.8638L107.851 82.317Z" fill="white"/>
<path d="M145.273 58.934C142.8 60.0792 140.348 60.2271 137.918 59.3775C135.497 58.5032 133.691 56.7788 132.498 54.2041C131.306 51.6294 131.163 49.1447 132.07 46.7499C132.986 44.3303 134.681 42.5478 137.154 41.4026C139.864 40.1475 142.525 40.2732 145.135 41.7796L143.816 43.5941C142.987 43.0932 142.052 42.8063 141.01 42.7333C139.968 42.6604 138.973 42.8435 138.025 43.2828C136.161 44.1456 134.905 45.5194 134.256 47.4042C133.615 49.2641 133.758 51.1935 134.683 53.1922C135.609 55.1909 136.992 56.5561 138.833 57.2878C140.682 57.9947 142.539 57.9167 144.402 57.0538C145.35 56.6145 146.138 55.9825 146.764 55.1577C147.382 54.316 147.764 53.4088 147.91 52.436L150.173 52.5915C149.565 55.5883 147.932 57.7024 145.273 58.934Z" fill="white"/>
<path d="M170 48.7168L161.856 51.191L156.427 33.3214L164.384 30.9041C165.92 30.4375 167.262 30.4883 168.41 31.0564C169.576 31.6191 170.365 32.5792 170.777 33.9366C171.103 35.0083 171.076 36.0114 170.697 36.946C170.312 37.8628 169.709 38.5434 168.888 38.9879C169.878 38.8432 170.843 39.0964 171.782 39.7476C172.739 40.3933 173.38 41.2519 173.706 42.3236C174.145 43.7703 174.036 45.0812 173.379 46.2564C172.734 47.4083 171.608 48.2284 170 48.7168ZM166.361 38.7607C167.343 38.4623 168.021 37.9637 168.394 37.2651C168.767 36.5665 168.826 35.7975 168.571 34.9581C168.316 34.1186 167.83 33.5151 167.114 33.1475C166.41 32.7566 165.576 32.7076 164.611 33.0006L159.253 34.6284L161.003 40.3885L166.361 38.7607ZM168.942 46.8726C169.978 46.5579 170.707 46.0342 171.128 45.3014C171.549 44.5687 171.616 43.729 171.328 42.7824C171.063 41.9072 170.545 41.2645 169.777 40.8541C169.026 40.4384 168.124 40.3905 167.07 40.7107L161.605 42.371L163.477 48.5329L168.942 46.8726Z" fill="white"/>
<path d="M186.363 44.1158L183.684 44.5633L187.4 36.2209C186.038 36.335 184.809 36.0009 183.713 35.2188C182.635 34.4336 181.964 33.2493 181.7 31.6659C181.42 29.9904 181.73 28.5572 182.628 27.3662C183.545 26.1721 184.86 25.432 186.572 25.146L193.974 23.9097L197.051 42.3304L194.759 42.7133L193.536 35.3947L189.835 36.0129L186.363 44.1158ZM188.339 34.1906L193.199 33.3787L192.023 26.3362L187.162 27.1482C186.076 27.3296 185.248 27.8087 184.677 28.5853C184.104 29.3435 183.903 30.2381 184.075 31.2692C184.247 32.3002 184.729 33.0902 185.521 33.6393C186.332 34.1852 187.271 34.369 188.339 34.1906Z" fill="white"/>
<path d="M214.551 40.6937C212.984 40.7542 211.564 40.5195 210.292 39.9895C209.02 39.4595 208.059 38.7588 207.409 37.8872L208.723 36.3514C209.311 37.0759 210.118 37.6518 211.143 38.0793C212.186 38.4873 213.277 38.6694 214.415 38.6254C215.87 38.5693 217.005 38.2172 217.82 37.5693C218.635 36.9026 219.022 36.0284 218.98 34.9466C218.937 33.8274 218.467 33.0143 217.569 32.5072C216.69 31.9994 215.504 31.7743 214.012 31.8319L210.207 31.9788L210.127 29.9084L213.932 29.7615C215.257 29.7103 216.329 29.4167 217.149 28.8807C217.987 28.3253 218.386 27.5346 218.346 26.5087C218.307 25.5015 217.848 24.7346 216.968 24.2082C216.107 23.681 215.033 23.4423 213.746 23.492C211.638 23.5733 209.905 24.3968 208.546 25.9625L207.202 24.5572C207.915 23.6704 208.84 22.9435 209.976 22.3766C211.131 21.7903 212.417 21.4698 213.834 21.415C215.737 21.3416 217.34 21.728 218.642 22.5744C219.964 23.42 220.654 24.6076 220.714 26.1371C220.761 27.3682 220.38 28.373 219.569 29.1515C218.776 29.9107 217.871 30.4033 216.852 30.6295C217.881 30.6831 218.869 31.0933 219.814 31.8601C220.777 32.6262 221.285 33.69 221.338 35.0517C221.398 36.6185 220.805 37.9304 219.556 38.9873C218.308 40.0443 216.64 40.6131 214.551 40.6937Z" fill="white"/>
<path d="M247.999 41.2374L245.35 40.9916L244.088 36.7126L234.832 35.8535L232.804 39.8271L230.155 39.5813L239.353 21.6787L242.225 21.9452L247.999 41.2374ZM243.582 34.5848L240.58 24.211L235.692 33.8525L243.582 34.5848Z" fill="white"/>
<path d="M264.362 43.8918L262.096 43.3783L265.765 27.1848L260.003 25.8792L260.461 23.8584L274.279 26.9893L273.821 29.0101L268.032 27.6983L264.362 43.8918Z" fill="white"/>
<path d="M286.644 30.1256L288.829 30.9174L286.301 37.8934L291.171 39.6584C292.855 40.269 294.005 41.2614 294.619 42.6354C295.25 44.0158 295.295 45.4519 294.755 46.9436C294.214 48.4353 293.268 49.5121 291.916 50.1737C290.565 50.8354 289.038 50.8578 287.335 50.2408L280.28 47.684L286.644 30.1256ZM290.201 41.511L285.595 39.8414L283.171 46.5278L287.778 48.1974C288.814 48.5727 289.767 48.5709 290.639 48.192C291.517 47.7955 292.135 47.1059 292.491 46.1231C292.847 45.1404 292.812 44.2242 292.385 43.3746C291.965 42.5075 291.237 41.8863 290.201 41.511Z" fill="white"/>
<path d="M309.342 59.8642C306.927 58.601 305.316 56.7473 304.509 54.3028C303.727 51.8505 303.994 49.3673 305.309 46.8531C306.624 44.3389 308.507 42.7118 310.958 41.9718C313.435 41.2238 315.881 41.4814 318.296 42.7446C320.942 44.1289 322.464 46.315 322.86 49.3029L320.617 49.3621C320.51 48.4 320.167 47.4837 319.59 46.6131C319.014 45.7426 318.262 45.0651 317.336 44.5806C315.516 43.6289 313.661 43.4698 311.771 44.1032C309.906 44.7287 308.463 46.0174 307.442 47.9692C306.421 49.921 306.182 51.8495 306.723 53.7547C307.289 55.652 308.482 57.0765 310.302 58.0282C311.228 58.5127 312.209 58.7518 313.244 58.7457C314.289 58.723 315.241 58.4733 316.101 57.9964L317.357 59.8854C314.61 61.2296 311.938 61.2225 309.342 59.8642Z" fill="white"/>
<path d="M326.604 69.0617L324.391 67.4882L332.911 64.2004C331.865 63.3197 331.23 62.2156 331.006 60.8881C330.796 59.5714 331.157 58.2588 332.087 56.9503C333.071 55.5658 334.302 54.7687 335.779 54.5592C337.271 54.3604 338.725 54.7639 340.14 55.7696L346.257 60.1171L335.437 75.3395L333.542 73.9931L337.841 67.9452L334.783 65.7715L326.604 69.0617ZM335.009 63.4242L339.025 66.2792L343.162 60.4595L339.145 57.6045C338.247 56.9664 337.322 56.7212 336.37 56.8688C335.429 57.0012 334.655 57.4934 334.05 58.3454C333.444 59.1974 333.228 60.0974 333.402 61.0453C333.59 62.0039 334.126 62.7969 335.009 63.4242Z" fill="white"/>
<path d="M359.349 96.4223C357.479 94.44 356.562 92.1619 356.597 89.5879C356.658 87.0148 357.721 84.7546 359.785 82.8075C361.849 80.8603 364.16 79.9372 366.719 80.038C369.304 80.1396 371.532 81.1815 373.402 83.1638C375.452 85.3362 376.176 87.8992 375.575 90.8528L373.436 90.1766C373.648 89.232 373.624 88.2541 373.363 87.243C373.102 86.2318 372.612 85.3461 371.895 84.5857C370.486 83.0922 368.785 82.3363 366.791 82.3179C364.824 82.3004 363.04 83.0474 361.437 84.559C359.835 86.0706 358.979 87.8151 358.869 89.7927C358.785 91.7709 359.447 93.5069 360.857 95.0004C361.574 95.7607 362.423 96.307 363.404 96.6392C364.398 96.9586 365.38 97.0334 366.348 96.8635L366.918 99.0589C363.884 99.4328 361.361 98.5539 359.349 96.4223Z" fill="white"/>
<path d="M386.41 131.12L385.191 129.141L392.486 124.648L386.76 115.35L379.465 119.842L378.246 117.864L394.149 108.07L395.367 110.049L388.525 114.263L394.251 123.561L401.093 119.348L402.312 121.326L386.41 131.12Z" fill="white"/>
<path d="M399.112 156.706L398.057 154.264L401.207 151.104L397.522 142.57L393.062 142.696L392.008 140.254L412.129 139.74L413.272 142.387L399.112 156.706ZM402.832 149.64L410.495 142.031L399.69 142.365L402.832 149.64Z" fill="white"/>
<path d="M407.356 182.613L406.765 180.365L421.632 176.457L405.149 174.218L404.907 173.297L418.165 163.269L403.298 167.177L402.707 164.929L420.77 160.182L421.617 163.404L409.496 172.583L424.571 174.642L425.418 177.865L407.356 182.613Z" fill="white"/>
<path d="M410.5 197.574L410.276 195.345L428.858 193.476L429.091 195.789L414.576 197.248L430.167 206.487L430.405 208.855L411.823 210.724L411.59 208.411L426.411 206.921L410.5 197.574Z" fill="white"/>
<path d="M227.071 84.5201C229.794 160.384 290.665 221.255 366.529 223.978C290.665 226.701 229.794 287.572 227.071 363.437C224.348 287.572 163.477 226.701 87.6128 223.978C163.477 221.255 224.348 160.384 227.071 84.5201Z" fill="white"/>
<path d="M223.436 207.942L223.424 212.872L234.66 212.898L210.985 236.525L214.468 240.015L238.207 216.323L238.181 227.698L243.111 227.709L243.157 207.988L223.436 207.942Z" fill="#111111"/>
</svg>
